<svg width="16" height="16" viewBox="0 0 16 16" fill="none" xmlns="http://www.w3.org/2000/svg">
<path fill-rule="evenodd" clip-rule="evenodd" d="M12.5 2H14.3333C15.0697 2 15.6666 2.59695 15.6666 3.33333V14.6667C15.6666 15.403 15.0697 16 14.3333 16H1.66665C0.930267 16 0.333313 15.403 0.333313 14.6667V3.33333C0.333313 2.59695 0.930267 2 1.66665 2H2.66665C2.85074 2 2.99998 2.14924 2.99998 2.33333V3.83333C2.99998 4.10948 3.22384 4.33333 3.49998 4.33333C3.77612 4.33333 3.99998 4.10948 3.99998 3.83333V0.666667C3.99998 0.298477 4.29846 0 4.66665 0C5.03484 0 5.33331 0.298477 5.33331 0.666667V1.834C5.33368 1.92579 5.40819 2 5.49998 2H9.66665C9.85074 2 9.99998 2.14924 9.99998 2.33333V3.83333C9.99998 4.10948 10.2238 4.33333 10.5 4.33333C10.7761 4.33333 11 4.10948 11 3.83333V0.666667C11 0.298477 11.2985 0 11.6666 0C12.0348 0 12.3333 0.298477 12.3333 0.666667V1.83333C12.3333 1.92538 12.4079 2 12.5 2ZM1.99998 14.6667H14C14.1841 14.6667 14.3333 14.5174 14.3333 14.3333V6.33333C14.3333 6.14924 14.1841 6 14 6H1.99998C1.81588 6 1.66665 6.14924 1.66665 6.33333V14.3333C1.66665 14.5174 1.81588 14.6667 1.99998 14.6667Z" fill="black"/>
</svg>
