<svg width="14" height="12" viewBox="0 0 14 12" fill="none" xmlns="http://www.w3.org/2000/svg">
<path d="M6.04567 1.93553H7.95433C8.83757 1.93633 9.60445 2.54408 9.807 3.40378C9.824 3.47545 9.88793 3.52611 9.96158 3.52628H12.8864C12.9286 3.52643 12.9691 3.50979 12.999 3.48001C13.0289 3.45024 13.0457 3.40979 13.0457 3.36761V1.77628C13.0457 1.43876 12.9115 1.11507 12.6728 0.876456C12.4341 0.637846 12.1104 0.503874 11.7728 0.504028H2.22717C1.88964 0.503874 1.56589 0.637846 1.32717 0.876456C1.08845 1.11507 0.954334 1.43876 0.954334 1.77628V3.36761C0.954334 3.40979 0.971131 3.45024 1.00101 3.48001C1.03089 3.50979 1.0714 3.52643 1.11358 3.52628H4.03842C4.11222 3.52654 4.17639 3.47569 4.193 3.40378C4.39556 2.54408 5.16243 1.93633 6.04567 1.93553Z" fill="black"/>
<path d="M0.636417 4.4812C0.467581 4.48105 0.305616 4.54805 0.186231 4.66743C0.0668464 4.78682 -0.000154698 4.94878 2.68218e-07 5.11762V8.45837C-2.50467e-07 8.76083 0.212885 9.02151 0.50925 9.08195C0.583199 9.09716 0.636306 9.1622 0.636417 9.2377V10.5263C0.636417 10.8778 0.92135 11.1627 1.27283 11.1627C1.62432 11.1627 1.90925 10.8778 1.90925 10.5263V9.25403C1.9091 9.21185 1.92574 9.17135 1.95552 9.14146C1.98529 9.11158 2.02573 9.09478 2.06792 9.09478H11.9321C11.9743 9.09478 12.0147 9.11158 12.0445 9.14146C12.0743 9.17135 12.0909 9.21185 12.0908 9.25403V10.5263C12.0908 10.8778 12.3757 11.1627 12.7272 11.1627C13.0787 11.1627 13.3636 10.8778 13.3636 10.5263V9.2377C13.3637 9.1622 13.4168 9.09716 13.4908 9.08195C13.7871 9.02151 14 8.76083 14 8.45837V5.11762C14.0002 4.94878 13.9332 4.78682 13.8138 4.66743C13.6944 4.54805 13.5324 4.48105 13.3636 4.4812H0.636417Z" fill="black"/>
</svg>
