<svg width="20" height="20" viewBox="0 0 20 20" fill="none" xmlns="http://www.w3.org/2000/svg">
<path d="M8.33333 13.3333C8.75 13.5833 9.33333 13.75 10 13.75C10.6667 13.75 11.25 13.5833 11.6667 13.3333" stroke="black" stroke-width="2" stroke-linecap="round" stroke-linejoin="round"/>
<path d="M15.8333 5.25C16.5883 6.19639 17.103 7.31148 17.3333 8.5C17.6151 8.63647 17.8528 8.84956 18.019 9.11485C18.1853 9.38014 18.2735 9.68691 18.2735 10C18.2735 10.3131 18.1853 10.6199 18.019 10.8851C17.8528 11.1504 17.6151 11.3635 17.3333 11.5C16.9736 13.1779 16.0493 14.6817 14.7147 15.7604C13.3802 16.8392 11.716 17.4277 10 17.4277C8.28397 17.4277 6.61983 16.8392 5.28526 15.7604C3.95069 14.6817 3.02642 13.1779 2.66667 11.5C2.38488 11.3635 2.14724 11.1504 1.98096 10.8851C1.81467 10.6199 1.72648 10.3131 1.72648 10C1.72648 9.68691 1.81467 9.38014 1.98096 9.11485C2.14724 8.84956 2.38488 8.63647 2.66667 8.5C3.01189 6.80875 3.92991 5.28835 5.26585 4.19531C6.6018 3.10226 8.27388 2.50348 10 2.5C11.6667 2.5 12.9167 3.41667 12.9167 4.58333C12.9167 5.75 12.1667 6.66667 11.25 6.66667C10.5833 6.66667 10 6.33333 10 5.83333" stroke="black" stroke-width="2" stroke-linecap="round" stroke-linejoin="round"/>
</svg>
