<svg width="21" height="21" viewBox="0 0 21 21" fill="none" xmlns="http://www.w3.org/2000/svg">
<path fill-rule="evenodd" clip-rule="evenodd" d="M2.00222 9.65901C2.00222 5.79189 5.13656 2.65726 9.0026 2.65726C12.8686 2.65726 16.003 5.79189 16.003 9.65901C16.003 11.5459 15.2568 13.2584 14.0434 14.5175C14.0095 14.5436 13.9769 14.5723 13.9458 14.6034C13.9146 14.6345 13.886 14.6671 13.8598 14.7011C12.601 15.9145 10.8889 16.6608 9.0026 16.6608C5.13656 16.6608 2.00222 13.5261 2.00222 9.65901ZM14.6205 16.6923C13.0808 17.9241 11.1277 18.6608 9.0026 18.6608C4.03167 18.6608 0.00222015 14.6304 0.00222015 9.65901C0.00222015 4.68764 4.03167 0.657257 9.0026 0.657257C13.9735 0.657257 18.003 4.68764 18.003 9.65901C18.003 11.7845 17.2664 13.738 16.0346 15.278L19.7102 18.9536C20.1007 19.3441 20.1007 19.9772 19.7102 20.3678C19.3197 20.7583 18.6865 20.7583 18.296 20.3678L14.6205 16.6923Z" fill="black"/>
</svg>
