<svg width="20" height="20" viewBox="0 0 20 20" fill="none" xmlns="http://www.w3.org/2000/svg">
<path d="M14.1667 11.6667L16.6667 14.4167C16.7809 14.5331 16.8584 14.6806 16.8896 14.8407C16.9208 15.0008 16.9043 15.1665 16.8422 15.3174C16.7801 15.4682 16.6751 15.5975 16.5402 15.6892C16.4053 15.7809 16.2464 15.831 16.0833 15.8333H3.91666C3.75355 15.831 3.59471 15.7809 3.45981 15.6892C3.32492 15.5975 3.21991 15.4682 3.1578 15.3174C3.09569 15.1665 3.07922 15.0008 3.11042 14.8407C3.14162 14.6806 3.21913 14.5331 3.33333 14.4167L5.83333 11.6667H5.58333C5.42022 11.6644 5.26138 11.6143 5.12648 11.5225C4.99159 11.4308 4.88658 11.3015 4.82447 11.1507C4.76236 10.9999 4.74588 10.8341 4.77709 10.674C4.80829 10.5139 4.88579 10.3665 4.99999 10.25L7.49999 7.5H7.33333C7.16312 7.51535 6.9923 7.478 6.84403 7.39301C6.69576 7.30802 6.57721 7.1795 6.50444 7.02487C6.43167 6.87023 6.40821 6.69696 6.43722 6.52854C6.46624 6.36013 6.54634 6.2047 6.66666 6.08333L9.99999 2.5L13.3333 6.08333C13.4536 6.2047 13.5337 6.36013 13.5628 6.52854C13.5918 6.69696 13.5683 6.87023 13.4955 7.02487C13.4228 7.1795 13.3042 7.30802 13.156 7.39301C13.0077 7.478 12.8369 7.51535 12.6667 7.5H12.5L15 10.25C15.1142 10.3665 15.1917 10.5139 15.2229 10.674C15.2541 10.8341 15.2376 10.9999 15.1755 11.1507C15.1134 11.3015 15.0084 11.4308 14.8735 11.5225C14.7386 11.6143 14.5798 11.6644 14.4167 11.6667H14.1667Z" stroke="black" stroke-width="2" stroke-linecap="round" stroke-linejoin="round"/>
<path d="M10 18.3333V15.8333" stroke="black" stroke-width="2" stroke-linecap="round" stroke-linejoin="round"/>
</svg>
