<svg width="16" height="17" viewBox="0 0 16 17" fill="none" xmlns="http://www.w3.org/2000/svg">
<path d="M14.0177 2.36738L10.8724 1.31894C10.8724 2.08076 10.5698 2.81137 10.0311 3.35005C9.49243 3.88874 8.76182 4.19137 8 4.19137C7.23818 4.19137 6.50757 3.88874 5.96889 3.35005C5.4302 2.81137 5.12757 2.08076 5.12757 1.31894L1.98226 2.36738C1.65723 2.47566 1.38162 2.69657 1.20516 2.99022C1.02871 3.28388 0.963032 3.63093 1.01999 3.96876L1.4365 6.46059C1.46384 6.62928 1.55045 6.78269 1.68075 6.89326C1.81106 7.00382 1.97653 7.06429 2.14742 7.0638H3.69135V14.2449C3.69135 15.0348 4.33765 15.6811 5.12757 15.6811H10.8724C11.2533 15.6811 11.6186 15.5298 11.888 15.2604C12.1573 14.9911 12.3086 14.6258 12.3086 14.2449V7.0638H13.8526C14.0235 7.06429 14.1889 7.00382 14.3192 6.89326C14.4496 6.78269 14.5362 6.62928 14.5635 6.46059L14.98 3.96876C15.037 3.63093 14.9713 3.28388 14.7948 2.99022C14.6184 2.69657 14.3428 2.47566 14.0177 2.36738V2.36738Z" stroke="black" stroke-width="2" stroke-linecap="round" stroke-linejoin="round"/>
</svg>
